<svg xmlns="http://www.w3.org/2000/svg" width="312.498" height="312.5" viewBox="0 0 312.498 312.5">
  <g id="Group_959" data-name="Group 959" transform="translate(0.082 0.082)">
    <path id="Path_26" data-name="Path 26" d="M.237,0Q.12,60.122,0,120.246c-.034,17.338,1.685,32.437,10.787,47.442a62.465,62.465,0,0,0,35.055,27.288,62.343,62.343,0,0,0,52.875-8.6,62.344,62.344,0,0,0,25.987-46.844,28.19,28.19,0,0,0-1.506-12.083A18.607,18.607,0,0,0,107.814,116.1c.471,9.627.924,19.437-1.556,28.751-4.71,17.7-20.878,31.895-39.1,33.773s-37.178-9.014-44.276-25.9c-4.246-10.1-4.38-21.384-4.45-32.34l-.618-96.916c-.027-4.138-.071-8.378-1.54-12.246A17.854,17.854,0,0,0,.237,0Z" transform="translate(82.815 177.361) rotate(-47)" fill="#fff" stroke="#fff" stroke-miterlimit="10" stroke-width="0.1"/>
    <path id="Path_27" data-name="Path 27" d="M.237,0Q.12,60.122,0,120.246c-.034,17.338,1.685,32.437,10.787,47.442a62.465,62.465,0,0,0,35.055,27.288,62.343,62.343,0,0,0,52.875-8.6,62.344,62.344,0,0,0,25.987-46.844,28.19,28.19,0,0,0-1.506-12.083A18.607,18.607,0,0,0,107.814,116.1c.471,9.627.924,19.437-1.556,28.751-4.71,17.7-20.878,31.895-39.1,33.773s-37.178-9.014-44.276-25.9c-4.246-10.1-4.38-21.384-4.45-32.34l-.618-96.916c-.027-4.138-.071-8.378-1.54-12.246A17.854,17.854,0,0,0,.237,0Z" transform="translate(229.52 134.974) rotate(133)" fill="#fff" stroke="#fff" stroke-miterlimit="10" stroke-width="0.1"/>
    <path id="Path_28" data-name="Path 28" d="M.236,0Q.119,60.122,0,120.246c-.034,17.338,1.685,32.437,10.787,47.442a62.467,62.467,0,0,0,35.056,27.289,62.342,62.342,0,0,0,52.875-8.6,62.342,62.342,0,0,0,25.987-46.843,28.191,28.191,0,0,0-1.506-12.083A18.608,18.608,0,0,0,107.814,116.1c.471,9.627.924,19.437-1.555,28.751-4.71,17.7-20.878,31.895-39.1,33.773s-37.178-9.015-44.276-25.9c-4.246-10.1-4.381-21.384-4.45-32.34l-.619-96.916c-.027-4.138-.071-8.378-1.54-12.246A17.854,17.854,0,0,0,.236,0Z" transform="translate(134.975 82.815) rotate(43)" fill="#fff" stroke="#fff" stroke-miterlimit="10" stroke-width="0.1"/>
    <path id="Path_29" data-name="Path 29" d="M.236,0Q.119,60.122,0,120.246c-.034,17.338,1.685,32.437,10.787,47.442a62.467,62.467,0,0,0,35.056,27.289,62.342,62.342,0,0,0,52.875-8.6,62.342,62.342,0,0,0,25.987-46.843,28.191,28.191,0,0,0-1.506-12.083A18.608,18.608,0,0,0,107.814,116.1c.471,9.627.924,19.437-1.555,28.751-4.71,17.7-20.878,31.895-39.1,33.773s-37.178-9.015-44.276-25.9c-4.246-10.1-4.381-21.384-4.45-32.34l-.619-96.916c-.027-4.138-.071-8.378-1.54-12.246A17.854,17.854,0,0,0,.236,0Z" transform="translate(177.359 229.52) rotate(-137)" fill="#fff" stroke="#fff" stroke-miterlimit="10" stroke-width="0.1"/>
  </g>
</svg>
